<?xml version="1.0" standalone="no"?>
<!DOCTYPE svg PUBLIC "-//W3C//DTD SVG 20010904//EN"
 "http://www.w3.org/TR/2001/REC-SVG-20010904/DTD/svg10.dtd">
<svg version="1.0" xmlns="http://www.w3.org/2000/svg"
 width="500.000000pt" height="500.000000pt" viewBox="0 0 500.000000 500.000000"
 preserveAspectRatio="xMidYMid meet">

<g transform="translate(0.000000,500.000000) scale(0.100000,-0.100000)"
fill="#000000" stroke="none">
<path d="M2365 4274 c-16 -2 -66 -9 -110 -15 -161 -22 -363 -84 -522 -161 -97
-47 -133 -73 -133 -98 0 -16 21 -8 133 50 143 74 321 133 507 166 116 20 370
23 485 5 205 -32 380 -87 543 -171 112 -58 132 -66 132 -50 0 58 -316 193
-578 246 -121 24 -374 40 -457 28z"/>
<path d="M1494 4018 c-94 -99 -146 -192 -169 -299 -34 -165 -5 -334 76 -451
29 -40 23 -42 -22 -6 -46 37 -125 142 -141 188 -19 56 -33 28 -36 -73 -4 -134
29 -222 125 -336 21 -25 31 -42 23 -39 -8 4 -39 17 -67 29 -29 13 -56 20 -59
16 -4 -4 1 -27 11 -52 21 -55 111 -156 172 -191 23 -14 43 -28 43 -31 0 -4
-31 -1 -117 14 -50 8 -42 -17 27 -80 60 -56 185 -127 224 -127 11 -1 35 -7 51
-14 l30 -13 -40 -6 c-22 -4 -61 -9 -87 -13 -31 -4 -48 -11 -48 -20 0 -22 139
-83 205 -90 81 -9 93 -16 61 -38 -14 -9 -26 -21 -26 -26 0 -28 170 -51 224
-30 25 9 37 -2 16 -15 -5 -3 -15 -15 -21 -27 -11 -20 -9 -20 64 -16 53 2 81 8
94 21 38 34 129 14 178 -39 34 -37 32 -43 -13 -31 -21 5 -55 7 -76 3 -51 -10
-122 -81 -132 -131 -7 -41 8 -106 31 -129 8 -8 15 -17 15 -20 0 -9 115 -159
136 -178 11 -9 32 -21 47 -27 l28 -11 -104 -103 c-122 -119 -141 -150 -135
-219 4 -42 12 -56 49 -94 53 -55 98 -70 156 -55 32 9 62 33 135 106 51 52 96
95 99 95 4 0 19 -19 35 -42 124 -184 215 -227 314 -148 51 40 70 77 70 133 0
49 -27 95 -127 218 -66 80 -102 103 -165 103 -44 0 -46 1 -33 19 10 14 27 19
72 20 89 3 112 24 256 240 47 70 30 149 -44 208 -72 57 -143 58 -201 2 -43
-41 -33 -8 11 36 29 29 53 42 94 51 50 12 59 11 99 -9 40 -19 158 -31 158 -16
0 3 -7 16 -15 29 l-16 23 69 -5 c69 -4 182 18 182 37 0 5 -15 18 -32 30 -18
11 -31 21 -28 21 55 2 183 36 230 61 58 31 78 59 43 59 -38 0 -143 23 -138 30
3 5 24 11 48 15 80 13 229 101 275 164 30 41 28 54 -5 47 -60 -11 -123 -18
-123 -12 0 3 14 13 32 22 59 30 149 126 179 189 35 72 28 77 -55 40 -32 -14
-60 -24 -62 -23 -1 2 17 25 42 52 92 101 143 270 118 395 -9 44 -26 39 -48
-15 -20 -49 -111 -162 -153 -189 l-26 -18 21 37 c12 20 31 51 42 69 26 45 50
162 50 250 0 155 -46 280 -150 402 -86 101 -104 100 -69 -7 34 -103 34 -290 2
-393 -73 -229 -305 -469 -520 -539 -66 -22 -126 -65 -157 -115 -44 -70 -97
-62 -140 21 -23 45 -28 70 -28 120 0 83 20 127 90 198 45 46 69 62 111 74 30
9 65 16 78 16 13 0 23 4 23 9 0 19 -60 52 -97 53 -21 0 -56 11 -79 24 -37 22
-49 23 -180 21 -133 -2 -141 -1 -198 26 -83 39 -98 35 -51 -13 21 -22 36 -40
32 -40 -19 0 -84 33 -127 65 -26 19 -50 32 -53 29 -9 -9 29 -78 65 -120 18
-20 49 -44 68 -53 l35 -15 -30 -4 c-16 -2 -56 1 -88 8 -32 6 -62 9 -65 6 -9
-10 37 -53 77 -72 20 -10 70 -21 111 -24 l75 -6 -67 -66 c-71 -70 -71 -82 -4
-71 20 3 36 4 36 2 -1 -22 -42 -156 -56 -186 -17 -34 -23 -38 -61 -41 -24 -2
-43 1 -43 6 0 16 -73 93 -110 117 -20 13 -55 28 -77 34 -52 14 -187 96 -258
156 -164 140 -285 381 -285 568 0 64 23 188 45 240 13 32 12 47 -5 47 -3 0
-24 -19 -46 -42z m2126 -213 c97 -204 47 -433 -138 -627 -43 -45 -53 -61 -42
-68 8 -5 25 0 46 13 130 87 174 123 211 169 23 29 51 64 62 78 l20 25 1 -35
c1 -129 -102 -305 -215 -366 -21 -11 -35 -26 -35 -38 0 -16 5 -18 42 -12 24 4
69 19 101 33 31 14 60 24 62 21 3 -2 -10 -26 -28 -51 -38 -53 -121 -116 -202
-153 -33 -15 -55 -32 -55 -41 0 -14 13 -15 101 -10 l101 5 -33 -29 c-83 -71
-265 -138 -376 -139 -35 0 -43 -3 -43 -19 0 -15 10 -20 53 -25 28 -4 84 -13
122 -20 l70 -13 -50 -23 c-29 -14 -86 -27 -135 -33 -122 -13 -121 -13 -75 -52
l39 -34 -27 -6 c-35 -9 -132 3 -176 21 -18 8 -37 14 -42 14 -14 0 -10 -34 6
-56 8 -10 15 -23 15 -28 0 -12 -70 3 -94 20 -24 16 -76 18 -127 4 -70 -20
-158 -121 -159 -183 0 -11 -9 -30 -20 -44 -52 -67 -1 100 65 209 56 93 70 128
86 227 13 84 11 138 -11 221 -25 96 -25 100 6 100 17 0 35 11 53 32 63 75 103
105 183 138 100 41 171 81 219 125 19 17 49 40 65 49 40 24 144 166 195 267
60 121 84 280 60 406 -25 127 -26 124 24 53 26 -36 59 -92 75 -125z m-2130
130 c-16 -68 -12 -285 6 -346 16 -55 88 -201 109 -223 7 -6 24 -30 38 -53 15
-23 68 -78 119 -123 88 -77 116 -93 310 -184 39 -19 73 -46 108 -86 37 -43 59
-60 76 -60 21 0 24 -3 18 -25 -10 -39 11 -30 48 23 43 60 55 87 78 186 27 110
26 118 -7 110 l-26 -7 30 39 c41 54 74 110 67 117 -3 3 -20 1 -37 -4 -46 -13
-138 -10 -165 5 -21 11 -17 12 35 8 64 -4 124 7 131 26 2 6 -9 14 -25 17 -42
9 -108 44 -134 71 -21 22 -15 36 7 15 17 -16 117 -41 163 -40 39 0 43 2 28 12
-52 33 -52 35 -1 27 27 -5 94 -6 149 -3 91 5 102 4 127 -16 35 -28 29 -46 -43
-127 -78 -88 -102 -139 -101 -217 0 -67 19 -125 64 -196 53 -84 71 -161 66
-280 -5 -116 -8 -126 -101 -287 -47 -81 -77 -177 -77 -250 0 -22 -8 -57 -18
-78 l-19 -38 -16 26 c-34 52 -16 171 43 286 39 76 70 214 70 311 0 87 -5 119
-20 119 -4 0 -10 -60 -13 -132 -5 -144 -14 -179 -81 -318 -21 -44 -39 -101
-44 -135 l-8 -60 -17 26 c-19 29 -37 112 -37 175 0 50 -19 61 -21 12 -1 -18
-4 -44 -8 -57 -6 -23 -8 -22 -19 16 -27 89 -172 155 -238 108 -12 -8 -40 -19
-63 -24 -38 -8 -42 -7 -35 7 22 55 28 72 23 76 -3 3 -29 -3 -57 -14 -52 -20
-140 -25 -176 -11 -17 7 -16 10 17 35 20 16 34 32 31 37 -3 5 -29 9 -57 9 -60
0 -152 22 -200 47 l-32 16 70 14 c39 8 93 17 120 21 35 5 50 12 50 22 0 11
-17 17 -70 21 -121 11 -249 62 -334 133 l-42 35 102 -6 c94 -6 101 -5 98 12
-2 10 -17 23 -34 28 -41 13 -161 91 -192 125 -28 31 -57 81 -50 89 3 2 27 -5
54 -16 26 -11 68 -25 92 -31 74 -19 70 2 -11 63 -104 79 -167 190 -182 320 -6
51 4 77 17 44 15 -40 128 -152 208 -207 121 -82 144 -74 56 19 -123 130 -184
285 -172 431 9 104 37 181 102 278 30 46 57 82 58 80 2 -2 0 -21 -5 -43z
m1370 -544 c21 -6 18 -8 -23 -17 -36 -9 -47 -8 -47 1 0 25 20 30 70 16z m-11
-1175 c15 -8 42 -31 60 -51 49 -56 44 -102 -21 -198 -82 -119 -124 -164 -163
-177 -48 -16 -70 -8 -53 19 7 11 22 22 35 26 13 3 57 49 103 106 68 86 80 106
80 138 0 55 -38 91 -95 91 -47 0 -30 18 -199 -208 -5 -7 -9 -30 -8 -50 3 -78
-35 -81 -45 -4 -6 47 19 95 115 217 81 104 125 125 191 91z m-581 -17 c35 -12
94 -77 171 -189 52 -76 60 -105 41 -156 -10 -26 -12 -26 -28 -10 -10 9 -17 33
-18 55 0 31 -13 56 -60 121 -70 98 -106 130 -143 130 -33 0 -79 -33 -91 -66
-15 -40 -6 -55 140 -246 11 -14 33 -29 49 -33 16 -3 37 -15 47 -26 17 -19 16
-19 -28 -19 -31 0 -54 7 -72 21 -31 24 -143 165 -168 212 -21 37 -23 95 -7
131 16 34 78 75 130 85 3 0 20 -4 37 -10z m562 -64 c61 -32 51 -66 -55 -195
-25 -30 -45 -58 -45 -62 0 -5 -4 -8 -10 -8 -5 0 -10 10 -10 23 0 13 -5 28 -12
35 -15 15 -54 16 -63 2 -8 -12 -25 -13 -25 -1 0 10 106 154 143 194 30 31 37
32 77 12z m-565 -23 c16 -11 140 -175 148 -195 7 -20 3 -21 -25 -6 -34 18 -68
-3 -68 -43 l-1 -33 -25 30 c-60 72 -134 180 -134 197 0 41 71 75 105 50z m420
-212 c7 -12 -9 -40 -69 -116 -23 -29 -54 -70 -69 -91 -46 -61 -118 -134 -128
-128 -15 10 -10 40 9 61 27 29 152 186 190 238 32 45 54 57 67 36z m-249 -76
c55 -58 62 -68 51 -85 -6 -10 -14 -18 -18 -17 -3 2 -34 33 -68 70 -40 43 -61
73 -57 83 10 27 28 16 92 -51z m99 20 c16 -24 16 -27 -1 -45 -27 -29 -45 -8
-31 36 6 19 11 35 13 35 1 0 9 -12 19 -26z m-108 -140 c34 -9 12 -44 -28 -44
-47 0 -78 -22 -163 -116 -68 -74 -80 -92 -80 -122 0 -46 49 -92 98 -92 28 0
44 12 117 87 46 47 89 96 96 107 11 20 12 20 22 -7 10 -27 7 -33 -56 -103 -87
-97 -126 -126 -177 -131 -36 -4 -47 0 -92 36 -35 27 -53 50 -57 71 -13 62 3
91 102 194 114 118 151 138 218 120z m278 -18 c41 -18 200 -212 209 -257 9
-49 -4 -87 -45 -124 -97 -87 -170 -52 -302 142 -51 76 -66 127 -47 162 11 22
13 22 31 5 12 -11 17 -25 13 -38 -8 -34 9 -67 81 -158 91 -113 119 -127 182
-88 60 36 56 93 -11 169 -24 27 -58 69 -75 94 -22 33 -40 47 -63 52 -37 8 -70
33 -62 46 8 13 50 11 89 -5z m-47 -95 c-2 -9 -12 -16 -22 -16 -25 0 -80 69
-72 90 5 14 13 10 51 -21 26 -21 45 -44 43 -53z m-267 26 c-26 -26 -5 -77 31
-77 10 0 18 -4 18 -9 0 -9 -153 -161 -175 -174 -28 -15 -84 29 -85 68 0 21
163 200 190 208 21 6 34 -3 21 -16z m343 -56 c13 -21 43 -59 65 -85 50 -57 54
-94 15 -125 -15 -12 -35 -21 -45 -21 -20 0 -21 1 -81 80 -23 30 -54 69 -69 85
-15 17 -30 41 -34 54 -7 23 -7 23 16 7 13 -9 30 -16 38 -16 21 0 51 30 51 52
0 26 16 15 44 -31z"/>
<path d="M2640 3390 l-25 -7 25 -10 c27 -11 62 -3 68 15 4 13 -29 14 -68 2z"/>
<path d="M1210 3708 c-223 -254 -336 -461 -420 -763 -76 -275 -79 -581 -10
-857 45 -181 116 -356 191 -475 21 -34 39 -66 39 -69 0 -9 67 -98 151 -199
169 -205 443 -404 667 -485 34 -13 65 -21 67 -18 8 8 -6 38 -17 38 -14 0 -220
105 -292 149 -34 20 -90 59 -125 87 -84 64 -266 239 -297 284 -13 19 -46 64
-74 100 -28 36 -88 142 -135 235 -87 175 -118 269 -161 490 -25 125 -24 424 0
550 23 114 69 286 96 356 65 165 251 459 346 546 28 26 35 38 32 64 l-3 31
-55 -64z"/>
<path d="M3730 3737 c0 -28 6 -40 26 -54 35 -23 187 -223 223 -293 10 -19 34
-64 54 -100 75 -135 135 -317 173 -530 24 -131 24 -401 0 -530 -35 -195 -92
-365 -172 -519 -77 -148 -90 -168 -185 -293 -64 -82 -213 -228 -309 -303 -83
-64 -192 -128 -312 -185 -63 -29 -98 -52 -102 -65 -3 -10 -4 -20 -3 -22 8 -7
179 72 263 122 353 211 633 539 761 895 89 244 117 398 117 640 -1 191 -13
293 -55 445 -43 157 -126 358 -179 435 -9 14 -29 47 -44 74 -28 51 -196 265
-235 300 l-21 19 0 -36z"/>
<path d="M2401 1286 l-22 -23 41 -37 c41 -36 60 -45 60 -25 0 17 -42 109 -49
109 -4 0 -17 -11 -30 -24z"/>
<path d="M2550 1236 c0 -7 -3 -28 -6 -45 -9 -41 10 -41 47 2 35 39 35 43 7 51
-36 9 -48 7 -48 -8z"/>
<path d="M2683 1175 c-39 -17 -41 -27 -11 -55 27 -25 20 -32 -49 -55 -29 -9
-55 -21 -59 -26 -8 -13 43 -112 70 -138 12 -11 80 -41 150 -67 187 -67 244
-57 296 51 35 72 23 141 -32 193 -40 37 -248 112 -308 111 -14 0 -40 -6 -57
-14z m195 -49 c64 -24 125 -47 134 -51 27 -11 58 -69 58 -108 0 -48 -27 -115
-53 -128 -57 -31 -78 -30 -205 12 -119 40 -182 76 -182 104 0 23 34 22 62 -1
43 -35 230 -97 268 -89 58 13 90 99 53 144 -21 25 -248 115 -273 108 -9 -2
-28 4 -41 14 l-24 18 25 10 c40 16 55 13 178 -33z m52 -99 c68 -21 89 -65 54
-115 -21 -31 -53 -28 -164 14 -125 47 -131 53 -85 77 34 17 37 21 32 52 l-6
34 67 -25 c37 -15 83 -31 102 -37z m-195 19 c0 -13 -16 -23 -60 -37 -64 -20
-85 -19 -85 5 0 10 23 22 63 35 70 22 82 22 82 -3z"/>
<path d="M2225 1173 c-53 -12 -211 -65 -236 -80 -17 -10 -37 -37 -49 -66 -19
-43 -20 -55 -10 -96 16 -67 42 -105 85 -126 50 -23 98 -17 245 32 87 29 123
47 147 72 31 31 32 33 17 57 -20 30 -77 33 -102 5 -17 -18 -201 -81 -239 -81
-42 0 -75 69 -50 104 8 11 57 32 123 52 133 41 138 41 132 9 -8 -40 11 -40 27
-1 10 23 22 36 34 36 19 0 37 42 26 60 -13 21 -99 35 -150 23z m113 -37 c12
-12 8 -15 -29 -21 -75 -12 -266 -76 -288 -96 -33 -31 -29 -93 8 -130 16 -16
39 -29 50 -29 38 0 242 71 262 91 22 22 59 25 59 5 0 -27 -48 -64 -106 -81
-33 -10 -86 -26 -118 -36 -91 -29 -135 -25 -180 14 -35 30 -38 37 -43 97 -5
62 -4 67 24 97 23 24 57 40 154 72 128 42 178 46 207 17z"/>
<path d="M2410 1075 l-23 -24 27 -11 c35 -13 66 -13 66 0 0 14 -30 60 -39 60
-4 0 -18 -11 -31 -25z"/>
<path d="M2451 855 c-35 -40 -38 -50 -15 -59 47 -18 64 -2 64 60 0 43 -10 43
-49 -1z m19 -25 c0 -5 -5 -10 -11 -10 -5 0 -7 5 -4 10 3 6 8 10 11 10 2 0 4
-4 4 -10z"/>
<path d="M2567 823 c-2 -5 1 -32 6 -60 9 -56 25 -67 60 -40 16 11 14 16 -16
59 -32 47 -42 55 -50 41z m43 -74 c0 -5 -4 -9 -10 -9 -5 0 -10 7 -10 16 0 8 5
12 10 9 6 -3 10 -10 10 -16z"/>
</g>
</svg>
